<?xml version="1.0" encoding="utf-8"?>
<!DOCTYPE svg PUBLIC "-//W3C//DTD SVG 1.1//EN" "http://www.w3.org/Graphics/SVG/1.1/DTD/svg11.dtd">
<svg version="1.1" id="Layer_1" xmlns="http://www.w3.org/2000/svg" xmlns:xlink="http://www.w3.org/1999/xlink" x="0px" y="0px"
	 viewBox="0 0 250 100" enable-background="new 0 0 250 100" xml:space="preserve">
<path fill="#E27826" d="M102.066,77.939c13.703,0.065,27.406,0.071,41.11,0.02c0.925-0.003,1.671,0.759,1.645,1.684
	c-0.13,4.601-0.291,9.202-0.483,13.803c-0.036,0.876-0.758,1.571-1.634,1.577c-13.831,0.086-27.661,0.071-41.491-0.045
	c-5.424-0.046-10.848-0.107-16.272-0.183c-2.061-0.029-4.122-0.061-6.184-0.094c-1.029-0.017-1.799-0.967-1.59-1.975
	c0.942-4.552,2.003-9.113,3.161-13.681c0.186-0.734,0.855-1.249,1.612-1.243c0.01,0,0.02,0,0.031,0
	c0.94,0.008,1.687-0.776,1.638-1.715c-0.406-7.772-0.628-15.544-0.665-23.316c-0.009-1.779-2.434-2.287-3.143-0.656
	c-6.18,14.208-11.674,28.329-15.662,42.308h0c-5.424-0.116-10.848-0.249-16.272-0.396h0c-13.354-22.344-25.18-44.345-32.21-65.788
	c-0.266-0.812,0.144-1.689,0.932-2.019c3.971-1.663,7.941-3.336,11.903-5.018c0.89-0.378,1.896,0.091,2.182,1.015
	c5.021,16.257,12.55,32.792,21.21,49.516c0.656,1.267,2.501,1.145,2.992-0.195C62.67,50.25,73.508,28.625,84.492,6.854
	c0.276-0.546,0.833-0.895,1.445-0.904c4.514-0.062,9.027-0.114,13.541-0.154c0.942-0.008,1.693,0.778,1.645,1.719
	c-1.177,22.943-1.409,45.885-0.696,68.828C100.453,77.228,101.181,77.935,102.066,77.939z M55.707,58.112
	c1.883-4.597,3.885-9.208,5.979-13.831c0.492-1.087-0.298-2.32-1.491-2.315c-5.066,0.02-10.131,0.043-15.197,0.068
	c-1.164,0.006-1.962,1.189-1.517,2.264c1.921,4.635,3.982,9.287,6.155,13.955C52.527,58.186,52.816,58.179,55.707,58.112z
	 M19.192,93.103c3.213,0.12,6.427,0.235,9.64,0.344c1.211,0.041,2.036-1.205,1.542-2.311c-7.791-17.438-13.787-34.717-17.075-51.802
	c-0.36-1.87-3.125-1.689-3.249,0.211c-1.084,16.504,0.308,33.008,4.177,49.511C14.768,91.364,16.822,93.014,19.192,93.103z
	 M29.376,7.295c-3.397,0.115-6.795,0.235-10.192,0.362c-2.366,0.088-4.415,1.732-4.955,4.037c-0.724,3.089-1.361,6.177-1.912,9.266
	c-0.227,1.273,1.066,2.292,2.259,1.792c4.777-2.001,9.548-4.018,14.301-6.047c0.506-0.216,0.865-0.671,0.96-1.213
	c0.364-2.076,0.76-4.151,1.189-6.227C31.24,8.227,30.436,7.259,29.376,7.295z M106.456,58.912c12.371,0.014,24.742,0.014,37.113,0
	c0.902-0.001,1.637-0.731,1.643-1.632c0.031-4.6,0.031-9.2,0-13.799c-0.006-0.902-0.741-1.631-1.643-1.632
	c-12.371-0.014-24.742-0.014-37.113,0c-0.902,0.001-1.637,0.731-1.643,1.632c-0.031,4.6-0.031,9.2,0,13.799
	C104.819,58.181,105.555,58.911,106.456,58.912z M194.319,42.648c-1.883,4.597-3.885,9.208-5.979,13.831
	c-0.492,1.087,0.298,2.32,1.491,2.315c5.066-0.02,10.131-0.043,15.197-0.068c1.164-0.006,1.962-1.189,1.517-2.264
	c-1.921-4.635-3.982-9.287-6.155-13.955C197.499,42.574,197.209,42.581,194.319,42.648z M201.252,6.707
	c-4.704-0.127-9.409-0.241-14.113-0.345c-0.739-0.016-1.391,0.463-1.598,1.173c-3.954,13.58-9.307,27.291-15.305,41.085
	c-0.705,1.622-3.145,1.137-3.153-0.632c-0.038-7.772-0.26-15.544-0.665-23.316c-0.049-0.939,0.698-1.723,1.638-1.715
	c0.01,0,0.02,0,0.031,0c0.757,0.007,1.426-0.508,1.612-1.243c1.158-4.568,2.218-9.128,3.161-13.68
	c0.209-1.008-0.561-1.959-1.59-1.975c-2.061-0.034-4.122-0.065-6.184-0.094c-5.424-0.077-10.848-0.138-16.272-0.183
	c-13.831-0.116-27.661-0.131-41.491-0.045c-0.877,0.005-1.598,0.701-1.634,1.577c-0.192,4.601-0.352,9.202-0.483,13.803
	c-0.026,0.925,0.72,1.688,1.645,1.684c13.703-0.051,27.406-0.044,41.11,0.02c0.885,0.004,1.613,0.712,1.64,1.597
	c0.713,22.943,0.481,45.885-0.696,68.828c-0.048,0.941,0.703,1.727,1.645,1.719c4.513-0.041,9.026-0.092,13.54-0.154
	c0.612-0.008,1.17-0.358,1.446-0.904c10.983-21.769,21.82-43.392,29.614-64.679c0.491-1.342,2.339-1.465,2.997-0.195
	c8.658,16.722,16.187,33.256,21.207,49.511c0.285,0.923,1.291,1.392,2.181,1.015c3.962-1.682,7.933-3.356,11.904-5.019
	c0.788-0.33,1.198-1.207,0.932-2.018c-6.948-21.193-18.581-42.931-31.744-65.007C202.336,7.028,201.816,6.722,201.252,6.707z
	 M219.651,9.625c7.791,17.438,13.787,34.716,17.075,51.802c0.36,1.87,3.125,1.689,3.249-0.211
	c1.084-16.504-0.308-33.008-4.177-49.511c-0.541-2.309-2.596-3.959-4.966-4.048c-3.213-0.12-6.427-0.235-9.64-0.344
	C219.982,7.272,219.156,8.518,219.651,9.625z M220.649,93.465c3.397-0.115,6.795-0.235,10.192-0.362
	c2.366-0.088,4.415-1.732,4.955-4.037c0.724-3.089,1.361-6.177,1.912-9.266c0.227-1.273-1.066-2.292-2.259-1.792
	c-4.777,2.001-9.548,4.018-14.301,6.047c-0.506,0.216-0.865,0.671-0.96,1.213c-0.364,2.076-0.76,4.151-1.189,6.227
	C218.785,92.533,219.589,93.501,220.649,93.465z"/>
<g>
</g>
<g>
</g>
<g>
</g>
<g>
</g>
<g>
</g>
<g>
</g>
</svg>
